<?xml version="1.0" ?><svg id="object" viewBox="0 0 32 32" xmlns="http://www.w3.org/2000/svg"><defs><style>.cls-1{fill:#97c1ff;}.cls-2{fill:#6d6daa;}</style></defs><title/><path class="cls-1" d="M24,30H8a2,2,0,0,1-2-2V26a10,10,0,0,1,20,0v2A2,2,0,0,1,24,30Z"/><path class="cls-2" d="M24,31H8a3,3,0,0,1-3-3V26a11,11,0,0,1,22,0v2A3,3,0,0,1,24,31ZM16,17a9,9,0,0,0-9,9v2a1,1,0,0,0,1,1H24a1,1,0,0,0,1-1V26A9,9,0,0,0,16,17Z"/><circle class="cls-1" cx="16" cy="7" r="5"/><path class="cls-2" d="M16,13a6,6,0,1,1,6-6A6,6,0,0,1,16,13ZM16,3a4,4,0,1,0,4,4A4,4,0,0,0,16,3Z"/></svg>